# xmcd
#
# Track frame offsets: 
#        150
#        24202
#        43284
#
# Disc length: 883 seconds
#
# Revision: 0
# Processed by: cddbd v1.5.2PL0 Copyright (c) Steve Scherf et al.
# Submitted via: ExactAudioCopy v1.0b3
#
DISCID=1c037103
DTITLE=茅原実里 - Freedom Dreamer
DYEAR=1900
DGENRE=
TTITLE0=Freedom Dreamer
TTITLE1=Best mark smile
TTITLE2=夏色華日
EXTD=
EXTT0=
EXTT1=
EXTT2=
PLAYORDER=
